<?xml version="1.0" standalone="no"?>
<!DOCTYPE svg PUBLIC "-//W3C//DTD SVG 20010904//EN"
 "http://www.w3.org/TR/2001/REC-SVG-20010904/DTD/svg10.dtd">
<svg version="1.0" xmlns="http://www.w3.org/2000/svg"
 width="16.000000pt" height="16.000000pt" viewBox="0 0 16.000000 16.000000"
 preserveAspectRatio="xMidYMid meet">

<g transform="translate(0.000000,16.000000) scale(0.100000,-0.100000)"
fill="#000000" stroke="none">
<path d="M43 148 c-55 -27 -50 -114 8 -138 89 -37 151 99 63 139 -30 13 -42
13 -71 -1z m20 -45 c-6 -16 -4 -16 15 1 12 11 23 17 23 15 1 -2 3 -14 4 -27 2
-17 -1 -20 -8 -13 -18 18 -28 12 -15 -8 7 -11 16 -17 22 -14 5 3 6 1 3 -5 -13
-20 -53 9 -51 37 2 29 2 31 9 31 2 0 2 -8 -2 -17z"/>
</g>
</svg>
